<?xml version="1.0" standalone="no"?>
<!DOCTYPE svg PUBLIC "-//W3C//DTD SVG 20010904//EN"
 "http://www.w3.org/TR/2001/REC-SVG-20010904/DTD/svg10.dtd">
<svg version="1.0" xmlns="http://www.w3.org/2000/svg"
 width="512.000000pt" height="512.000000pt" viewBox="0 0 512.000000 512.000000"
 preserveAspectRatio="xMidYMid meet">
<metadata>
Created by potrace 1.11, written by Peter Selinger 2001-2013
</metadata>
<g transform="translate(0.000000,512.000000) scale(0.100000,-0.100000)"
fill="#000000" stroke="none">
<path d="M2140 4553 c-192 -30 -375 -135 -493 -283 -54 -69 -113 -187 -138
-275 -21 -77 -22 -97 -23 -594 -2 -378 -5 -516 -14 -519 -10 -3 -40 8 -107 39
-29 14 -100 80 -114 106 -11 22 -12 22 -112 -40 -55 -34 -111 -69 -124 -77
-47 -29 -409 -255 -419 -262 -14 -9 94 -149 174 -226 160 -154 399 -270 636
-308 21 -3 46 -8 54 -9 8 -2 17 -4 20 -4 3 -1 5 -194 4 -430 0 -470 3 -508 58
-639 95 -228 300 -400 546 -458 53 -13 450 -15 520 -3 294 50 522 255 608 547
23 79 26 106 28 279 1 106 0 197 -3 202 -4 5 -169 8 -381 7 l-375 -1 -1 -135
c-1 -74 -2 -138 -3 -141 -1 -3 -54 -5 -118 -5 l-117 1 -1 377 c0 246 3 379 10
381 5 2 520 3 1143 2 l1132 -1 0 1238 0 1238 -1182 -1 c-651 -1 -1194 -3
-1208 -6z m1630 -1229 c0 -369 -3 -473 -12 -476 -11 -3 -1491 -2 -1508 1 -4 1
-5 944 -1 947 0 0 343 1 761 1 l760 0 0 -473z"/>
<path d="M2628 3553 c-9 -19 -1 -458 7 -454 6 2 113 107 239 233 l228 228
-235 0 c-130 0 -237 -3 -239 -7z"/>
</g>
</svg>
