<svg width="243" height="48" viewBox="0 0 243 48" fill="none" xmlns="http://www.w3.org/2000/svg">
<rect width="243" height="48" rx="24" fill="url(#paint0_linear)"/>
<path d="M208.614 31.5486L215.642 25.9652C215.981 25.6471 216.248 25.4079 216.248 24.9984C216.248 24.5889 216.021 24.3666 215.642 24.0315L208.614 18.4493C208.446 18.3653 208.26 18.3253 208.072 18.333C207.884 18.3407 207.701 18.3958 207.54 18.4933C207.214 18.6885 207 19.0382 207 19.415V30.5829C207.004 30.7699 207.055 30.9528 207.15 31.114C207.245 31.2753 207.38 31.4094 207.542 31.5035C207.702 31.6011 207.885 31.6565 208.072 31.6644C208.26 31.6723 208.446 31.6324 208.614 31.5486Z" fill="white"/>
<path d="M82.386 31V18.436H88.326C88.914 18.436 89.442 18.538 89.91 18.742C90.378 18.934 90.774 19.204 91.098 19.552C91.434 19.9 91.692 20.326 91.872 20.83C92.052 21.322 92.142 21.862 92.142 22.45C92.142 23.05 92.052 23.596 91.872 24.088C91.692 24.58 91.434 25 91.098 25.348C90.774 25.696 90.378 25.972 89.91 26.176C89.442 26.368 88.914 26.464 88.326 26.464H85.122V31H82.386ZM85.122 24.088H88.002C88.41 24.088 88.728 23.986 88.956 23.782C89.196 23.566 89.316 23.254 89.316 22.846V22.054C89.316 21.646 89.196 21.34 88.956 21.136C88.728 20.92 88.41 20.812 88.002 20.812H85.122V24.088ZM100.62 31L99.7201 28.012H95.5261L94.6261 31H91.8541L95.9941 18.436H99.3781L103.464 31H100.62ZM97.6501 20.92H97.5601L96.1741 25.69H99.0541L97.6501 20.92ZM107.015 31V26.086L102.713 18.436H105.773L108.473 23.44H108.509L111.101 18.436H114.071L109.769 26.068V31H107.015ZM123.714 25.06L122.508 22.54H122.454V31H119.88V18.436H122.868L126.306 24.376L127.512 26.896H127.566V18.436H130.14V31H127.152L123.714 25.06ZM137.946 31.216C137.118 31.216 136.362 31.078 135.678 30.802C134.994 30.526 134.412 30.118 133.932 29.578C133.452 29.026 133.08 28.348 132.816 27.544C132.552 26.728 132.42 25.786 132.42 24.718C132.42 23.65 132.552 22.714 132.816 21.91C133.08 21.094 133.452 20.416 133.932 19.876C134.412 19.324 134.994 18.91 135.678 18.634C136.362 18.358 137.118 18.22 137.946 18.22C138.774 18.22 139.53 18.358 140.214 18.634C140.898 18.91 141.48 19.324 141.96 19.876C142.44 20.416 142.812 21.094 143.076 21.91C143.34 22.714 143.472 23.65 143.472 24.718C143.472 25.786 143.34 26.728 143.076 27.544C142.812 28.348 142.44 29.026 141.96 29.578C141.48 30.118 140.898 30.526 140.214 30.802C139.53 31.078 138.774 31.216 137.946 31.216ZM137.946 28.786C138.774 28.786 139.416 28.516 139.872 27.976C140.34 27.436 140.574 26.662 140.574 25.654V23.782C140.574 22.774 140.34 22 139.872 21.46C139.416 20.92 138.774 20.65 137.946 20.65C137.118 20.65 136.47 20.92 136.002 21.46C135.546 22 135.318 22.774 135.318 23.782V25.654C135.318 26.662 135.546 27.436 136.002 27.976C136.47 28.516 137.118 28.786 137.946 28.786ZM147.313 31L144.469 18.436H147.169L148.357 24.466L149.023 27.958H149.077L149.869 24.466L151.255 18.436H154.243L155.647 24.466L156.421 27.958H156.475L157.141 24.466L158.347 18.436H160.939L158.023 31H154.909L153.325 24.196L152.713 21.442H152.659L152.029 24.196L150.445 31H147.313Z" fill="white"/>
<defs>
<linearGradient id="paint0_linear" x1="0" y1="24.1589" x2="243" y2="24.1589" gradientUnits="userSpaceOnUse">
<stop stop-color="#2153FD"/>
<stop offset="1" stop-color="#04BBFF"/>
</linearGradient>
</defs>
</svg>
