<svg width="24" height="28" viewBox="0 0 24 28" fill="none" xmlns="http://www.w3.org/2000/svg">
<path d="M2.66667 27.3333H21.3333C22.804 27.3333 24 26.1373 24 24.6667V5.99999C24 4.52932 22.804 3.33332 21.3333 3.33332H18.6667V0.666656H16V3.33332H8V0.666656H5.33333V3.33332H2.66667C1.196 3.33332 0 4.52932 0 5.99999V24.6667C0 26.1373 1.196 27.3333 2.66667 27.3333ZM10.6667 22.552L5.724 17.6093L7.60933 15.724L10.6667 18.7813L16.3907 13.0573L18.276 14.9427L10.6667 22.552ZM2.66667 7.33332H21.3333V9.99999H2.66667V7.33332Z" fill="#C71E35"/>
</svg>
