<svg width="351" height="78" viewBox="0 0 351 78" fill="none" xmlns="http://www.w3.org/2000/svg">
<rect width="351" height="46.8" rx="23.4" fill="url(#paint0_linear)"/>
<rect width="351" height="46.8" rx="23.4" fill="url(#paint1_linear)"/>
<g clip-path="url(#clip0)">
<path d="M95.0948 28.8528V17.964H100.243C100.752 17.964 101.21 18.0524 101.616 18.2292C102.021 18.3956 102.364 18.6296 102.645 18.9312C102.936 19.2328 103.16 19.602 103.316 20.0388C103.472 20.4652 103.55 20.9332 103.55 21.4428C103.55 21.9628 103.472 22.436 103.316 22.8624C103.16 23.2888 102.936 23.6528 102.645 23.9544C102.364 24.256 102.021 24.4952 101.616 24.672C101.21 24.8384 100.752 24.9216 100.243 24.9216H97.466V28.8528H95.0948ZM97.466 22.8624H99.962C100.316 22.8624 100.591 22.774 100.789 22.5972C100.997 22.41 101.101 22.1396 101.101 21.786V21.0996C101.101 20.746 100.997 20.4808 100.789 20.304C100.591 20.1168 100.316 20.0232 99.962 20.0232H97.466V22.8624ZM111.032 28.8528C110.616 28.8528 110.267 28.7228 109.987 28.4628C109.716 28.2028 109.545 27.8544 109.472 27.4176H109.378C109.253 27.948 108.978 28.3536 108.551 28.6344C108.125 28.9048 107.6 29.04 106.976 29.04C106.154 29.04 105.525 28.8216 105.088 28.3848C104.651 27.948 104.433 27.3708 104.433 26.6532C104.433 25.79 104.745 25.1504 105.369 24.7344C106.003 24.308 106.861 24.0948 107.943 24.0948H109.238V23.58C109.238 23.1848 109.134 22.8728 108.926 22.644C108.718 22.4048 108.369 22.2852 107.881 22.2852C107.423 22.2852 107.059 22.384 106.789 22.5816C106.518 22.7792 106.295 23.0028 106.118 23.2524L104.745 22.0356C105.078 21.5468 105.494 21.1672 105.993 20.8968C106.503 20.616 107.189 20.4756 108.052 20.4756C109.217 20.4756 110.091 20.7304 110.673 21.24C111.255 21.7496 111.547 22.4932 111.547 23.4708V27.0588H112.311V28.8528H111.032ZM107.834 27.4332C108.219 27.4332 108.546 27.35 108.817 27.1836C109.097 27.0172 109.238 26.7468 109.238 26.3724V25.4052H108.115C107.21 25.4052 106.757 25.712 106.757 26.3256V26.5596C106.757 26.8612 106.851 27.0848 107.038 27.2304C107.225 27.3656 107.491 27.4332 107.834 27.4332ZM118.731 20.6628H120.884L117.733 30.1164C117.525 30.7508 117.228 31.2188 116.843 31.5204C116.469 31.822 115.928 31.9728 115.221 31.9728H113.786V30.1788H115.33L115.611 29.274L112.741 20.6628H115.034L116.235 24.4848L116.828 26.856H116.921L117.53 24.4848L118.731 20.6628ZM124.963 20.6628H127.194L127.99 23.97L128.551 26.466H128.614L129.269 23.97L130.205 20.6628H132.311L133.263 23.97L133.933 26.466H133.996L134.557 23.97L135.353 20.6628H137.49L135.228 28.8528H132.81L131.812 25.3896L131.235 23.268H131.188L130.626 25.3896L129.628 28.8528H127.257L124.963 20.6628ZM140.015 19.7892C139.547 19.7892 139.203 19.6852 138.985 19.4772C138.777 19.2588 138.673 18.9832 138.673 18.6504V18.3072C138.673 17.9744 138.777 17.704 138.985 17.496C139.203 17.2776 139.547 17.1684 140.015 17.1684C140.483 17.1684 140.821 17.2776 141.029 17.496C141.247 17.704 141.356 17.9744 141.356 18.3072V18.6504C141.356 18.9832 141.247 19.2588 141.029 19.4772C140.821 19.6852 140.483 19.7892 140.015 19.7892ZM138.86 20.6628H141.169V28.8528H138.86V20.6628ZM146.194 28.8528C145.393 28.8528 144.785 28.65 144.369 28.2444C143.963 27.8388 143.761 27.246 143.761 26.466V22.4568H142.606V20.6628H143.183C143.495 20.6628 143.709 20.59 143.823 20.4444C143.937 20.2884 143.995 20.07 143.995 19.7892V18.4476H146.069V20.6628H147.692V22.4568H146.069V27.0588H147.567V28.8528H146.194ZM149.296 17.3088H151.605V22.0512H151.698C151.844 21.6248 152.099 21.2556 152.463 20.9436C152.827 20.6316 153.331 20.4756 153.976 20.4756C154.818 20.4756 155.453 20.7564 155.879 21.318C156.316 21.8796 156.534 22.6804 156.534 23.7204V28.8528H154.225V23.9076C154.225 23.3772 154.142 22.9872 153.976 22.7376C153.809 22.4776 153.513 22.3476 153.087 22.3476C152.899 22.3476 152.717 22.3736 152.541 22.4256C152.364 22.4672 152.203 22.54 152.057 22.644C151.922 22.748 151.813 22.878 151.729 23.034C151.646 23.1796 151.605 23.3512 151.605 23.5488V28.8528H149.296V17.3088Z" fill="white"/>
<path fill-rule="evenodd" clip-rule="evenodd" d="M258.862 25.6364C258.862 27.5124 258.433 28.8793 257.575 29.7369C256.735 30.5767 255.378 30.9965 253.501 30.9965H246.801C244.925 30.9965 243.558 30.5767 242.701 29.7369C241.861 28.8793 241.441 27.5124 241.441 25.6364V17.0602C241.441 15.1841 241.861 13.8262 242.701 12.9864C243.558 12.1288 244.925 11.7 246.801 11.7H253.501C255.378 11.7 256.735 12.1288 257.575 12.9864C258.433 13.8262 258.862 15.1841 258.862 17.0602V25.6364ZM254.037 17.0602C254.037 15.9881 253.501 15.4521 252.429 15.4521H247.873C246.801 15.4521 246.265 15.9881 246.265 17.0602V25.6364C246.265 26.7084 246.801 27.2444 247.873 27.2444H252.429C253.501 27.2444 254.037 26.7084 254.037 25.6364V17.0602Z" fill="white"/>
<path fill-rule="evenodd" clip-rule="evenodd" d="M194.003 30.7285H188.777L195.879 11.968H201.239L208.341 30.7285H203.115L201.909 27.3784H195.209L194.003 30.7285ZM200.703 23.8943L198.559 17.5962L196.415 23.8943H200.703Z" fill="white"/>
<path d="M205.39 11.968H210.482L214.904 21.0803L219.326 11.968H224.418L217.316 25.7704V30.7285H212.492V25.7704L205.39 11.968Z" fill="white"/>
<path d="M240.095 26.9764H230.313V11.968H225.488V30.7285H240.095V26.9764Z" fill="white"/>
<path d="M177.51 17.5962H180.19L177.51 20.2763L177.51 17.5962Z" fill="white"/>
<path fill-rule="evenodd" clip-rule="evenodd" d="M175.366 11.968H188.23V25.9044H175.366V30.1925L176.706 30.1925V28.5845H180.994V30.1925C180.994 32.5608 179.074 34.4807 176.706 34.4807H175.366C172.998 34.4807 171.078 32.5608 171.078 30.1925V25.8025C169.425 25.5821 167.381 24.8929 166.043 22.7527L169.68 20.48C170.006 21.0021 170.463 21.2883 171.078 21.4429V16.2562C171.078 13.8879 172.998 11.968 175.366 11.968ZM175.366 16.2562L175.366 21.6163H183.942V16.2562H175.366Z" fill="white"/>
</g>
<rect x="52.6499" y="54.6" width="23.4" height="23.4" rx="1.4625" fill="url(#paint2_linear)"/>
<path d="M64.3233 65.4132C64.312 66.3013 65.1148 66.7969 65.7195 67.0916C66.3409 67.3939 66.5496 67.5878 66.5471 67.8582C66.5425 68.272 66.0515 68.4546 65.5921 68.4617C64.7905 68.4741 64.3245 68.2453 63.9539 68.0722L63.6652 69.4234C64.0369 69.5947 64.7253 69.7441 65.439 69.7506C67.1146 69.7506 68.2107 68.9235 68.2167 67.6412C68.2232 66.0137 65.9656 65.9236 65.981 65.1962C65.9863 64.9756 66.1968 64.7402 66.658 64.6804C66.8863 64.6502 67.5165 64.627 68.2309 64.956L68.5114 63.6488C68.1271 63.5089 67.6333 63.3749 67.0185 63.3749C65.4414 63.3749 64.3322 64.2133 64.3233 65.4132ZM71.2059 63.4875C70.9 63.4875 70.6421 63.666 70.5271 63.9399L68.1337 69.6546H69.808L70.1411 68.7338H72.1871L72.3804 69.6546H73.8561L72.5683 63.4875H71.2059ZM71.4401 65.1535L71.9233 67.4693H70.6L71.4401 65.1535ZM62.2933 63.4876L60.9736 69.6545H62.569L63.8882 63.4874H62.2933V63.4876ZM59.9331 63.4874L58.2725 67.6851L57.6007 64.116C57.5219 63.7176 57.2106 63.4875 56.8649 63.4875H54.1503L54.1123 63.6666C54.6696 63.7875 55.3028 63.9826 55.6864 64.1913C55.9212 64.3188 55.9881 64.4302 56.0652 64.7331L57.3376 69.6546H59.0236L61.6085 63.4875H59.9331" fill="url(#paint3_linear)"/>
<rect x="81.8999" y="54.6" width="23.4" height="23.4" rx="1.4625" fill="url(#paint4_linear)"/>
<path d="M98.2666 60.126C97.5918 59.3569 96.372 59.0271 94.8116 59.0271H90.2827C90.1283 59.0271 89.9789 59.0822 89.8615 59.1825C89.7441 59.2827 89.6663 59.4216 89.6421 59.5741L87.7564 71.534C87.7189 71.7698 87.9015 71.9834 88.1405 71.9834H90.9365L91.6387 67.5295L91.6169 67.669C91.6669 67.3541 91.9362 67.1219 92.255 67.1219H93.5837C96.1938 67.1219 98.2376 66.0618 98.8346 62.9949C98.8523 62.9042 98.8677 62.8159 98.8809 62.7297C98.8056 62.6898 98.8056 62.6898 98.8809 62.7297C99.0587 61.5962 98.8797 60.8246 98.2666 60.126Z" fill="#27346A"/>
<path d="M92.7086 62.3214C92.785 62.285 92.8686 62.2661 92.9533 62.2661H96.5039C96.9243 62.2661 97.3165 62.2935 97.6748 62.3512C97.7751 62.3672 97.8749 62.3863 97.974 62.4084C98.1144 62.4394 98.2532 62.4773 98.3899 62.5221C98.5661 62.5809 98.7302 62.6494 98.881 62.7297C99.0587 61.5957 98.8797 60.8246 98.2666 60.126C97.5914 59.3569 96.372 59.0271 94.8116 59.0271H90.2823C89.9634 59.0271 89.6921 59.2593 89.6421 59.5741L87.7564 71.5336C87.7189 71.7698 87.9015 71.9831 88.1401 71.9831H90.9365L92.3934 62.7446C92.4077 62.6538 92.4439 62.5678 92.4988 62.4941C92.5537 62.4204 92.6257 62.3611 92.7086 62.3214Z" fill="#27346A"/>
<path d="M98.8347 62.9948C98.2377 66.0612 96.194 67.1218 93.5838 67.1218H92.2548C91.9359 67.1218 91.6666 67.354 91.6171 67.6688L90.7435 73.2067C90.7109 73.4131 90.8705 73.6002 91.0793 73.6002H93.4362C93.5713 73.6001 93.7018 73.5519 93.8045 73.4642C93.9071 73.3765 93.9751 73.255 93.9962 73.1217L94.0192 73.0016L94.4634 70.1862L94.492 70.0306C94.5131 69.8973 94.5811 69.7758 94.6837 69.6881C94.7864 69.6004 94.9169 69.5522 95.0519 69.5522H95.4047C97.6879 69.5522 99.4756 68.6246 99.9981 65.9419C100.216 64.8208 100.103 63.8848 99.5264 63.2274C99.3515 63.0283 99.1342 62.8638 98.8811 62.7296C98.8674 62.8163 98.8525 62.9041 98.8347 62.9948Z" fill="#2790C3"/>
<path d="M98.2565 62.4806C98.1634 62.4534 98.0695 62.4294 97.9748 62.4085C97.8756 62.3867 97.7759 62.3677 97.6756 62.3516C97.3169 62.2935 96.925 62.2661 96.5042 62.2661H92.954C92.8693 62.2659 92.7856 62.285 92.7093 62.3218C92.6263 62.3614 92.5542 62.4206 92.4993 62.4944C92.4444 62.5681 92.4083 62.6542 92.3941 62.745L91.6395 67.5295L91.6177 67.669C91.6673 67.3542 91.9366 67.122 92.2555 67.122H93.5845C96.1946 67.122 98.2383 66.0618 98.8354 62.995C98.8531 62.9042 98.868 62.8164 98.8817 62.7297C98.7306 62.6499 98.5669 62.5809 98.3907 62.5225C98.3462 62.5078 98.3015 62.4938 98.2566 62.4806" fill="#1F264F"/>
<rect x="23.3999" y="54.6" width="23.4" height="23.4" rx="1.4625" fill="url(#paint5_linear)"/>
<path d="M30.1139 72.7279V71.8626C30.1139 71.5308 29.9119 71.3146 29.5658 71.3146C29.3927 71.3146 29.2052 71.3722 29.0754 71.5597C28.9745 71.4011 28.8303 71.3146 28.6139 71.3146C28.4697 71.3146 28.3255 71.3578 28.2101 71.5164V71.3434H27.9072V72.7279H28.2101V71.9635C28.2101 71.7184 28.3399 71.603 28.5419 71.603C28.7437 71.603 28.8447 71.7328 28.8447 71.9635V72.7279H29.1476V71.9635C29.1476 71.7184 29.2918 71.603 29.4793 71.603C29.6812 71.603 29.7821 71.7328 29.7821 71.9635V72.7279H30.1139ZM34.5992 71.3434H34.1089V70.9252H33.806V71.3434H33.532V71.6174H33.8059V72.252C33.8059 72.5693 33.9358 72.7568 34.2819 72.7568C34.4117 72.7568 34.5559 72.7135 34.6569 72.6558L34.5703 72.3962C34.4838 72.4539 34.3829 72.4683 34.3108 72.4683C34.1666 72.4683 34.1089 72.3818 34.1089 72.2375V71.6174H34.5992V71.3434ZM37.1664 71.3145C36.9934 71.3145 36.878 71.4011 36.8059 71.5164V71.3434H36.503V72.7279H36.8059V71.9491C36.8059 71.7184 36.9068 71.5886 37.0943 71.5886C37.152 71.5886 37.2241 71.603 37.2818 71.6174L37.3683 71.329C37.3106 71.3146 37.2241 71.3146 37.1664 71.3146V71.3145ZM33.2868 71.4588C33.1425 71.3578 32.9406 71.3146 32.7243 71.3146C32.3782 71.3146 32.1475 71.4876 32.1475 71.7616C32.1475 71.9924 32.3205 72.1222 32.6234 72.1655L32.7676 72.1799C32.9262 72.2087 33.0128 72.252 33.0128 72.3241C33.0128 72.425 32.8974 72.4972 32.6954 72.4972C32.4936 72.4972 32.3349 72.425 32.2339 72.353L32.0897 72.5837C32.2484 72.6991 32.4647 72.7568 32.681 72.7568C33.0848 72.7568 33.3156 72.5693 33.3156 72.3097C33.3156 72.0645 33.1281 71.9347 32.8397 71.8914L32.6954 71.877C32.5656 71.8625 32.4647 71.8338 32.4647 71.7472C32.4647 71.6463 32.5656 71.5886 32.7243 71.5886C32.8974 71.5886 33.0705 71.6607 33.157 71.7039L33.2868 71.4588ZM41.3345 71.3146C41.1614 71.3146 41.046 71.4011 40.9739 71.5164V71.3434H40.671V72.7279H40.9739V71.9491C40.9739 71.7184 41.0749 71.5886 41.2623 71.5886C41.32 71.5886 41.3922 71.603 41.4499 71.6174L41.5364 71.329C41.4787 71.3146 41.3922 71.3146 41.3345 71.3146ZM37.4693 72.0357C37.4693 72.4539 37.7577 72.7568 38.2048 72.7568C38.4067 72.7568 38.5509 72.7135 38.6951 72.5982L38.5509 72.353C38.4356 72.4395 38.3202 72.4827 38.1904 72.4827C37.9452 72.4827 37.7721 72.3097 37.7721 72.0357C37.7721 71.7761 37.9452 71.603 38.1904 71.5886C38.3202 71.5886 38.4356 71.6318 38.5509 71.7184L38.6951 71.4732C38.5509 71.3578 38.4067 71.3146 38.2048 71.3146C37.7577 71.3146 37.4693 71.6174 37.4693 72.0357ZM40.2672 72.0357V71.3434H39.9644V71.5164C39.8634 71.3867 39.7192 71.3146 39.5317 71.3146C39.1423 71.3146 38.8394 71.6174 38.8394 72.0357C38.8394 72.4539 39.1423 72.7568 39.5317 72.7568C39.7336 72.7568 39.8778 72.6847 39.9644 72.5549V72.7279H40.2672V72.0357ZM39.1567 72.0357C39.1567 71.7905 39.3153 71.5886 39.5749 71.5886C39.8201 71.5886 39.9932 71.7761 39.9932 72.0357C39.9932 72.2808 39.8201 72.4827 39.5749 72.4827C39.3153 72.4683 39.1567 72.2808 39.1567 72.0357ZM35.5367 71.3146C35.1328 71.3146 34.8444 71.603 34.8444 72.0357C34.8444 72.4683 35.1328 72.7568 35.5511 72.7568C35.753 72.7568 35.9549 72.6991 36.1136 72.5693L35.9693 72.353C35.854 72.4395 35.7097 72.4972 35.5655 72.4972C35.378 72.4972 35.1905 72.4107 35.1472 72.1654H36.1713V72.0501C36.1857 71.603 35.9261 71.3146 35.5366 71.3146H35.5367ZM35.5367 71.5741C35.7241 71.5741 35.854 71.6896 35.8828 71.9059H35.1617C35.1905 71.7184 35.3204 71.5741 35.5367 71.5741ZM43.0507 72.0357V70.7953H42.7479V71.5164C42.6469 71.3867 42.5027 71.3146 42.3152 71.3146C41.9258 71.3146 41.6229 71.6174 41.6229 72.0357C41.6229 72.4539 41.9258 72.7568 42.3152 72.7568C42.5171 72.7568 42.6613 72.6847 42.7479 72.5549V72.7279H43.0507V72.0357ZM41.9402 72.0357C41.9402 71.7905 42.0988 71.5886 42.3585 71.5886C42.6037 71.5886 42.7767 71.7761 42.7767 72.0357C42.7767 72.2808 42.6037 72.4827 42.3585 72.4827C42.0988 72.4683 41.9402 72.2808 41.9402 72.0357ZM31.8157 72.0357V71.3434H31.5128V71.5164C31.4118 71.3867 31.2676 71.3146 31.0801 71.3146C30.6907 71.3146 30.3879 71.6174 30.3879 72.0357C30.3879 72.4539 30.6907 72.7568 31.0801 72.7568C31.2821 72.7568 31.4263 72.6847 31.5128 72.5549V72.7279H31.8157V72.0357ZM30.6907 72.0357C30.6907 71.7905 30.8494 71.5886 31.109 71.5886C31.3542 71.5886 31.5273 71.7761 31.5273 72.0357C31.5273 72.2808 31.3542 72.4827 31.109 72.4827C30.8494 72.4683 30.6907 72.2808 30.6907 72.0357Z" fill="black"/>
<path d="M33.1855 60.8292H37.7286V68.9923H33.1855V60.8292Z" fill="#FF5F00"/>
<path d="M33.4741 64.9108C33.4741 63.2523 34.2529 61.7812 35.45 60.8293C34.5703 60.137 33.4598 59.7188 32.2483 59.7188C29.3781 59.7188 27.0562 62.0407 27.0562 64.9108C27.0562 67.7809 29.3781 70.1029 32.2482 70.1029C33.4597 70.1029 34.5702 69.6847 35.45 68.9923C34.2529 68.0549 33.4741 66.5694 33.4741 64.9108Z" fill="#EB001B"/>
<path d="M43.8582 64.9108C43.8582 67.7809 41.5362 70.1029 38.6661 70.1029C37.4546 70.1029 36.3441 69.6847 35.4644 68.9923C36.6758 68.0405 37.4402 66.5694 37.4402 64.9108C37.4402 63.2523 36.6614 61.7812 35.4644 60.8293C36.3441 60.137 37.4546 59.7188 38.6661 59.7188C41.5362 59.7188 43.8582 62.0552 43.8582 64.9108H43.8582Z" fill="#F79E1B"/>
<path opacity="0.2" d="M113.1 56.0625C113.1 55.2548 113.754 54.6 114.562 54.6H210.6C217.061 54.6 222.3 59.8383 222.3 66.3C222.3 72.7617 217.061 78 210.6 78H114.562C113.754 78 113.1 77.3452 113.1 76.5375V56.0625Z" fill="#FBC02D"/>
<path d="M125.796 71.5V69.862H127.912V63.7468L126.097 64.9071L125.305 63.5694L127.803 61.9723H129.823V69.862H131.666V71.5H125.796ZM136.13 71.6638C135.557 71.6638 135.065 71.5728 134.656 71.3908C134.246 71.1997 133.905 70.9085 133.632 70.5172C133.368 70.1168 133.172 69.6072 133.045 68.9884C132.918 68.3605 132.854 67.6098 132.854 66.7362C132.854 65.8626 132.918 65.1164 133.045 64.4976C133.172 63.8697 133.368 63.3601 133.632 62.9688C133.905 62.5684 134.246 62.2772 134.656 62.0952C135.065 61.9041 135.557 61.8085 136.13 61.8085C136.703 61.8085 137.195 61.9041 137.604 62.0952C138.014 62.2772 138.35 62.5684 138.614 62.9688C138.887 63.3601 139.087 63.8697 139.215 64.4976C139.342 65.1164 139.406 65.8626 139.406 66.7362C139.406 67.6098 139.342 68.3605 139.215 68.9884C139.087 69.6072 138.887 70.1168 138.614 70.5172C138.35 70.9085 138.014 71.1997 137.604 71.3908C137.195 71.5728 136.703 71.6638 136.13 71.6638ZM136.13 70.0258C136.357 70.0258 136.548 69.994 136.703 69.9303C136.858 69.8575 136.981 69.7483 137.072 69.6027C137.163 69.448 137.226 69.2478 137.263 69.0021C137.308 68.7564 137.331 68.4515 137.331 68.0875V65.3848C137.331 64.6659 137.245 64.1654 137.072 63.8833C136.899 63.5921 136.585 63.4465 136.13 63.4465C135.675 63.4465 135.361 63.5921 135.188 63.8833C135.015 64.1654 134.929 64.6659 134.929 65.3848V68.0875C134.929 68.4515 134.947 68.7564 134.983 69.0021C135.029 69.2478 135.097 69.448 135.188 69.6027C135.279 69.7483 135.402 69.8575 135.557 69.9303C135.711 69.994 135.902 70.0258 136.13 70.0258ZM142.341 71.5L148.265 61.9723H149.903L143.979 71.5H142.341ZM142.942 67.2139C142.214 67.2139 141.659 67.0046 141.276 66.586C140.894 66.1583 140.703 65.4667 140.703 64.5112C140.703 63.5557 140.894 62.8687 141.276 62.4501C141.659 62.0224 142.214 61.8085 142.942 61.8085C143.661 61.8085 144.211 62.0224 144.593 62.4501C144.985 62.8687 145.18 63.5557 145.18 64.5112C145.18 65.4667 144.985 66.1583 144.593 66.586C144.211 67.0046 143.661 67.2139 142.942 67.2139ZM142.942 66.1219C143.351 66.1219 143.556 65.8489 143.556 65.3029V63.7195C143.556 63.1735 143.351 62.9005 142.942 62.9005C142.532 62.9005 142.327 63.1735 142.327 63.7195V65.3029C142.327 65.8489 142.532 66.1219 142.942 66.1219ZM149.303 71.6638C148.575 71.6638 148.02 71.4545 147.637 71.0359C147.255 70.6082 147.064 69.9166 147.064 68.9611C147.064 68.0056 147.255 67.3186 147.637 66.9C148.02 66.4723 148.575 66.2584 149.303 66.2584C150.022 66.2584 150.572 66.4723 150.954 66.9C151.346 67.3186 151.541 68.0056 151.541 68.9611C151.541 69.9166 151.346 70.6082 150.954 71.0359C150.572 71.4545 150.022 71.6638 149.303 71.6638ZM149.303 70.5718C149.712 70.5718 149.917 70.2988 149.917 69.7528V68.1694C149.917 67.6234 149.712 67.3504 149.303 67.3504C148.893 67.3504 148.688 67.6234 148.688 68.1694V69.7528C148.688 70.2988 148.893 70.5718 149.303 70.5718ZM160.014 71.6638C159.441 71.6638 158.917 71.5774 158.444 71.4045C157.98 71.2316 157.58 70.954 157.243 70.5718C156.915 70.1896 156.656 69.6891 156.465 69.0703C156.283 68.4515 156.192 67.6962 156.192 66.8044C156.192 65.9126 156.283 65.1528 156.465 64.5249C156.656 63.8879 156.915 63.3692 157.243 62.9688C157.58 62.5684 157.98 62.2772 158.444 62.0952C158.917 61.9041 159.441 61.8085 160.014 61.8085C160.869 61.8085 161.543 61.9951 162.034 62.3682C162.535 62.7322 162.944 63.2873 163.263 64.0335L161.57 64.9071C161.515 64.7069 161.452 64.5203 161.379 64.3474C161.315 64.1745 161.224 64.0289 161.106 63.9106C160.988 63.7923 160.837 63.7013 160.655 63.6376C160.482 63.5648 160.269 63.5284 160.014 63.5284C159.468 63.5284 159.04 63.6922 158.731 64.0198C158.421 64.3474 158.267 64.8388 158.267 65.494V67.9783C158.267 68.6335 158.421 69.1249 158.731 69.4525C159.04 69.7801 159.468 69.9439 160.014 69.9439C160.269 69.9439 160.487 69.9075 160.669 69.8347C160.86 69.7528 161.019 69.6482 161.147 69.5208C161.274 69.3843 161.379 69.2296 161.461 69.0567C161.543 68.8747 161.615 68.679 161.679 68.4697L163.29 69.3979C163.126 69.7528 162.944 70.0713 162.744 70.3534C162.544 70.6355 162.312 70.8767 162.048 71.0769C161.793 71.268 161.497 71.4136 161.16 71.5137C160.824 71.6138 160.442 71.6638 160.014 71.6638ZM169.458 71.5C168.712 71.5 168.307 71.086 168.243 70.2579H168.066C167.993 70.6947 167.797 71.0405 167.479 71.2953C167.16 71.541 166.755 71.6638 166.264 71.6638C165.618 71.6638 165.131 71.4818 164.803 71.1178C164.476 70.7447 164.312 70.2306 164.312 69.5754C164.312 68.7928 164.548 68.224 165.022 67.8691C165.504 67.5142 166.173 67.3368 167.028 67.3368H168.066V66.7771C168.066 66.404 167.988 66.1265 167.833 65.9445C167.679 65.7625 167.419 65.6715 167.055 65.6715C166.737 65.6715 166.468 65.7534 166.25 65.9172C166.041 66.0719 165.854 66.2812 165.69 66.5451L164.557 65.535C164.849 65.1073 165.204 64.7751 165.622 64.5385C166.041 64.2928 166.578 64.17 167.233 64.17C168.17 64.17 168.862 64.3884 169.308 64.8252C169.754 65.262 169.977 65.9126 169.977 66.7771V70.0122H170.563V71.5H169.458ZM167.028 70.3261C167.31 70.3261 167.551 70.2488 167.752 70.0941C167.961 69.9303 168.066 69.68 168.066 69.3433V68.4561H167.206C166.55 68.4561 166.223 68.7291 166.223 69.2751V69.5344C166.223 69.8074 166.291 70.0076 166.428 70.135C166.573 70.2624 166.773 70.3261 167.028 70.3261ZM174.298 71.6638C173.125 71.6638 172.187 71.2407 171.487 70.3944L172.619 69.2614C173.056 69.8802 173.63 70.1896 174.339 70.1896C174.949 70.1896 175.254 69.9439 175.254 69.4525C175.254 69.2614 175.204 69.1158 175.104 69.0157C175.013 68.9065 174.858 68.8292 174.64 68.7837L173.916 68.6472C173.143 68.5016 172.583 68.2604 172.237 67.9237C171.901 67.5779 171.732 67.0911 171.732 66.4632C171.732 65.7079 171.955 65.1391 172.401 64.7569C172.847 64.3656 173.498 64.17 174.353 64.17C174.926 64.17 175.422 64.261 175.841 64.443C176.269 64.6159 176.642 64.8843 176.96 65.2483L175.868 66.3676C175.459 65.8853 174.958 65.6442 174.367 65.6442C173.812 65.6442 173.534 65.8899 173.534 66.3813C173.534 66.5815 173.584 66.7316 173.684 66.8317C173.784 66.9318 173.948 67.0046 174.176 67.0501L174.926 67.1866C175.682 67.3231 176.223 67.5552 176.551 67.8828C176.887 68.2013 177.056 68.6608 177.056 69.2614C177.056 70.0349 176.815 70.631 176.332 71.0496C175.85 71.4591 175.172 71.6638 174.298 71.6638ZM178.531 61.399H180.442V65.5486H180.66C180.715 65.3575 180.788 65.1801 180.879 65.0163C180.979 64.8525 181.097 64.7069 181.234 64.5795C181.37 64.4521 181.529 64.352 181.711 64.2792C181.893 64.2064 182.107 64.17 182.353 64.17C182.99 64.17 183.477 64.3884 183.814 64.8252C184.15 65.2529 184.319 65.8535 184.319 66.627V71.5H182.408V66.9955C182.408 66.1492 182.112 65.7261 181.52 65.7261C181.229 65.7261 180.974 65.8171 180.756 65.9991C180.547 66.172 180.442 66.4177 180.442 66.7362V71.5H178.531V61.399ZM186.176 61.399H188.087V65.5213H188.305C188.341 65.3302 188.41 65.1528 188.51 64.989C188.619 64.8252 188.746 64.6841 188.892 64.5658C189.037 64.4384 189.201 64.3429 189.383 64.2792C189.565 64.2064 189.752 64.17 189.943 64.17C190.771 64.17 191.376 64.4839 191.758 65.1118C192.15 65.7397 192.345 66.677 192.345 67.9237C192.345 69.1704 192.154 70.1077 191.772 70.7356C191.39 71.3544 190.78 71.6638 189.943 71.6638C189.752 71.6638 189.565 71.6274 189.383 71.5546C189.201 71.4909 189.037 71.3999 188.892 71.2816C188.746 71.1542 188.619 71.0086 188.51 70.8448C188.41 70.681 188.341 70.5036 188.305 70.3125H188.087V71.5H186.176V61.399ZM189.179 70.1077C189.533 70.1077 189.816 69.9985 190.025 69.7801C190.243 69.5526 190.352 69.2341 190.352 68.8246V67.0092C190.352 66.5997 190.243 66.2857 190.025 66.0673C189.816 65.8398 189.533 65.7261 189.179 65.7261C188.833 65.7261 188.564 65.808 188.373 65.9718C188.182 66.1265 188.087 66.3631 188.087 66.6816V69.1522C188.087 69.4707 188.182 69.7119 188.373 69.8757C188.564 70.0304 188.833 70.1077 189.179 70.1077ZM198.676 71.5C197.93 71.5 197.525 71.086 197.461 70.2579H197.284C197.211 70.6947 197.016 71.0405 196.697 71.2953C196.379 71.541 195.974 71.6638 195.482 71.6638C194.836 71.6638 194.349 71.4818 194.022 71.1178C193.694 70.7447 193.53 70.2306 193.53 69.5754C193.53 68.7928 193.767 68.224 194.24 67.8691C194.722 67.5142 195.391 67.3368 196.247 67.3368H197.284V66.7771C197.284 66.404 197.207 66.1265 197.052 65.9445C196.897 65.7625 196.638 65.6715 196.274 65.6715C195.955 65.6715 195.687 65.7534 195.469 65.9172C195.259 66.0719 195.073 66.2812 194.909 66.5451L193.776 65.535C194.067 65.1073 194.422 64.7751 194.841 64.5385C195.259 64.2928 195.796 64.17 196.451 64.17C197.389 64.17 198.08 64.3884 198.526 64.8252C198.972 65.262 199.195 65.9126 199.195 66.7771V70.0122H199.782V71.5H198.676ZM196.247 70.3261C196.529 70.3261 196.77 70.2488 196.97 70.0941C197.179 69.9303 197.284 69.68 197.284 69.3433V68.4561H196.424C195.769 68.4561 195.441 68.7291 195.441 69.2751V69.5344C195.441 69.8074 195.509 70.0076 195.646 70.135C195.792 70.2624 195.992 70.3261 196.247 70.3261ZM203.885 71.6638C202.884 71.6638 202.129 71.359 201.62 70.7493C201.11 70.1396 200.855 69.1977 200.855 67.9237C200.855 66.6497 201.11 65.7079 201.62 65.0982C202.129 64.4794 202.884 64.17 203.885 64.17C204.595 64.17 205.159 64.3338 205.578 64.6614C206.006 64.9799 206.311 65.4349 206.493 66.0264L204.95 66.7089C204.905 66.3631 204.8 66.1083 204.636 65.9445C204.472 65.7716 204.222 65.6851 203.885 65.6851C203.194 65.6851 202.848 66.0946 202.848 66.9136V68.9202C202.848 69.7392 203.194 70.1487 203.885 70.1487C204.231 70.1487 204.486 70.0622 204.65 69.8893C204.823 69.7073 204.95 69.4343 205.032 69.0703L206.52 69.7255C206.129 71.0177 205.25 71.6638 203.885 71.6638ZM207.923 61.399H209.834V65.9035L209.725 67.4187H209.943L210.721 66.1083L211.99 64.3338H214.12L211.95 67.1457L214.202 71.5H212.1L210.639 68.4015L209.834 69.4116V71.5H207.923V61.399Z" fill="#E6A500"/>
<path opacity="0.5" d="M113.1 56.0625C113.1 55.2548 113.754 54.6 114.562 54.6H117V78H114.562C113.754 78 113.1 77.3452 113.1 76.5375V56.0625Z" fill="#FBC02D"/>
<defs>
<linearGradient id="paint0_linear" x1="0" y1="23.555" x2="351" y2="23.555" gradientUnits="userSpaceOnUse">
<stop stop-color="#2153FD"/>
<stop offset="1" stop-color="#04BBFF"/>
</linearGradient>
<linearGradient id="paint1_linear" x1="0" y1="23.555" x2="351" y2="23.555" gradientUnits="userSpaceOnUse">
<stop stop-color="#2153FD"/>
<stop offset="1" stop-color="#04BBFF"/>
</linearGradient>
<linearGradient id="paint2_linear" x1="64.3499" y1="54.6" x2="64.3499" y2="78" gradientUnits="userSpaceOnUse">
<stop stop-color="#F2F2F2"/>
<stop offset="1" stop-color="#DBE1E6"/>
</linearGradient>
<linearGradient id="paint3_linear" x1="63.1893" y1="69.8785" x2="63.3738" y2="63.3306" gradientUnits="userSpaceOnUse">
<stop stop-color="#222357"/>
<stop offset="1" stop-color="#254AA5"/>
</linearGradient>
<linearGradient id="paint4_linear" x1="93.5999" y1="54.6" x2="93.5999" y2="78" gradientUnits="userSpaceOnUse">
<stop stop-color="#F2F2F2"/>
<stop offset="1" stop-color="#DBE1E6"/>
</linearGradient>
<linearGradient id="paint5_linear" x1="35.0999" y1="54.6" x2="35.0999" y2="78" gradientUnits="userSpaceOnUse">
<stop stop-color="#F2F2F2"/>
<stop offset="1" stop-color="#DBE1E6"/>
</linearGradient>
<clipPath id="clip0">
<rect x="93.8936" y="11.7" width="164.968" height="22.7806" fill="white"/>
</clipPath>
</defs>
</svg>
